<svg width="960" height="960" viewBox="0 0 960 960" fill="none" xmlns="http://www.w3.org/2000/svg">
<path fill-rule="evenodd" clip-rule="evenodd" d="M250.029 874.046V614.307C250.028 610.716 248.601 607.273 246.062 604.734C243.523 602.195 240.08 600.768 236.489 600.767H73.456C69.8653 600.768 66.422 602.195 63.883 604.734C61.3439 607.273 59.9171 610.716 59.916 614.307V874.046C59.9189 877.636 61.3464 881.078 63.885 883.617C66.4236 886.156 69.8659 887.583 73.456 887.586H236.489C240.079 887.583 243.521 886.156 246.06 883.617C248.599 881.078 250.026 877.636 250.029 874.046ZM237.758 625.124C235.442 619.99 229.788 615.376 223.631 616.573C222.676 616.758 222.052 617.683 222.238 618.638C222.423 619.593 223.348 620.217 224.303 620.031C228.27 619.26 232.621 622.304 234.546 626.572C236.475 630.849 236.431 635.796 236.311 641.02V641.02L235.668 668.978C235.645 669.951 236.416 670.758 237.388 670.78C238.361 670.802 239.167 670.032 239.19 669.059L239.833 641.102C239.95 636.016 240.069 630.249 237.758 625.124Z" fill="#171717"/>
<path fill-rule="evenodd" clip-rule="evenodd" d="M501.632 834.612C512.068 730.193 512.005 624.991 501.444 520.584C448.876 522.737 396.295 523.613 343.701 523.214V523.543C342.973 540.878 342.292 558.679 341.599 576.785C338.22 665.148 334.563 760.765 323.809 844.762C326.78 845.654 329.845 846.511 332.968 847.298C350.889 851.827 370.97 854.285 388.714 850.727C391.148 850.25 393.554 849.642 395.924 848.907C397.077 835.854 398.218 822.406 399.382 808.68C406.459 725.253 414.409 631.534 431.331 553.644L431.765 553.738C421.712 652.083 416.734 750.881 416.851 849.738C420.417 850.842 424.022 851.84 427.651 852.709C443.807 856.624 460.433 858.257 477.043 857.559C478.805 857.477 480.598 857.359 482.398 857.136C487.742 856.467 492.944 854.881 496.432 850.924C500.27 846.567 501.057 840.39 501.632 834.612ZM491.502 546.215C491.441 545.244 490.605 544.506 489.634 544.567C488.663 544.628 487.925 545.464 487.986 546.435C493.041 627.087 494.245 707.856 491.6 788.744C491.568 789.717 492.33 790.531 493.303 790.563C494.275 790.594 495.089 789.832 495.121 788.86C497.77 707.86 496.564 626.978 491.502 546.215Z" fill="#171717"/>
<path fill-rule="evenodd" clip-rule="evenodd" d="M464.146 355.956C470.25 369.217 475.75 382.717 480.646 396.456L480.47 396.512C474.496 409.469 468.515 422.43 462.526 435.394C461.779 437.39 460.605 439.199 459.085 440.694C457.464 442.079 454.963 442.657 453.201 441.457C450.97 439.942 451.064 436.666 451.51 434C453.107 425.322 455.906 416.91 459.826 409.005C456.15 416.018 452.463 422.876 448.176 429.605C447.214 431.377 445.866 432.91 444.231 434.091C442.516 435.136 440.073 435.277 438.641 433.868C436.75 432.022 437.56 428.877 438.523 426.422C442.203 417.143 446.41 408.083 451.123 399.284C442.867 413.763 433.379 429.253 426.755 425.107C419.956 420.857 440.014 388.422 453.025 374.107C450.109 374.232 446.57 375.307 443.033 376.381C435.961 378.528 428.893 380.675 426.802 375.234C424.508 369.28 448.508 355.729 462.608 356.656L464.146 355.956ZM276.57 400.766C295.007 395.905 313.197 389.14 329.791 379.828L329.889 379.987L329.748 382.933C327.402 431.883 325.384 473.985 319.731 522.939C327.724 523.06 335.713 523.15 343.699 523.209C396.313 523.604 448.896 522.728 501.447 520.579C507.644 520.324 513.837 520.05 520.025 519.757C522.212 489.211 522.184 458.548 519.943 428.006L519.602 426.256C539.953 422.314 559.877 416.427 579.102 408.676C607.369 397.156 633.497 381.185 655.269 359.812C660.535 354.868 665.176 349.3 669.091 343.231C670.798 340.516 672.218 337.631 673.33 334.623C680.177 316.068 672.955 294.236 658.769 280.451C644.583 266.666 624.607 260.112 604.89 258.551C585.173 256.99 565.409 259.979 545.856 262.979C516.48 267.462 487.106 271.951 457.734 276.448C456.302 278.492 454.07 279.337 451.158 279.361C447.374 279.389 443.556 279.118 439.743 278.849C437.086 278.661 434.432 278.473 431.793 278.386C418.39 277.96 404.995 278.093 391.608 278.786L391.191 278.807C387.061 279.018 382.842 279.233 378.866 278.086C377.289 277.749 375.883 276.863 374.897 275.586C374.798 275.427 374.708 275.262 374.627 275.093L373.969 275.128C354.717 278.145 338.398 289.449 322.153 300.702C317.084 304.214 312.021 307.721 306.879 310.969C254.704 343.944 187.144 351.331 129.074 330.392C128.711 331.364 128.343 332.329 127.974 333.298C127.844 333.64 127.713 333.983 127.582 334.326C121.182 351.299 114.771 368.276 108.347 385.257C105.259 393.434 102.17 401.616 99.0814 409.801L98.4004 410.901C110.053 417.606 123.707 420.143 137.153 420.366C149.404 420.569 161.597 418.949 173.74 417.336C174.924 417.179 176.109 417.022 177.292 416.866C183.531 416.043 189.779 415.263 196.029 414.483C223.108 411.104 250.207 407.722 276.57 400.766ZM660.945 307.097C660.775 306.139 659.86 305.501 658.902 305.672C657.944 305.843 657.306 306.757 657.477 307.715C660.262 323.344 653.383 339.672 642.569 351.79C631.745 363.92 617.448 372.431 602.969 380.543C602.12 381.019 601.818 382.092 602.293 382.941C602.769 383.79 603.842 384.092 604.691 383.617C619.15 375.515 633.935 366.756 645.197 354.136C656.469 341.504 663.98 324.125 660.945 307.097Z" fill="url(#paint0_linear_47_7921)"/>
<path d="M626.368 69.7L852.662 123.578C852.662 123.578 821.988 245.427 821.162 247.917L711.272 222.232L697.838 219.085L604.807 197.348L531.035 134.357L626.368 69.7Z" fill="url(#paint1_linear_47_7921)"/>
<path d="M818.677 631.711L697.145 685.411L682.571 691.846L640.46 710.46L561.709 672.331C561.709 672.331 627.19 587.779 628.846 585.301C629.456 584.385 654.928 573.112 686.94 559.184C691.555 557.176 696.299 555.121 701.126 553.03C754.182 530.037 817.026 503.23 817.026 503.23L818.677 631.711Z" fill="#171717"/>
<path d="M516.11 882.126C518.632 883.716 520.607 886.04 521.77 888.784L520.27 889.301C512.789 897.028 500.506 896.828 489.831 895.548C468.075 892.937 446.647 888.084 425.888 881.069L424.561 881.386C423.876 878.582 423.58 875.697 423.681 872.813C423.857 866.355 425.618 860.048 427.381 853.824L427.651 852.709C443.808 856.624 460.434 858.257 477.043 857.559C478.805 857.477 480.602 857.359 482.398 857.136L482.539 858.228C488.38 866.424 496.29 872.924 505.462 877.064C509.052 878.685 512.833 879.942 516.11 882.126Z" fill="url(#paint2_linear_47_7921)"/>
<path d="M459.309 156.2C454.517 157.897 449.574 159.131 444.548 159.888C430.648 162.049 416.387 161.588 402.553 164.209C400.404 164.609 398.091 165.196 396.682 166.863C395.308 168.484 395.082 170.75 394.92 172.853C393.511 191.113 392.114 208.787 390.728 226.602L390.552 226.59C386.606 229.08 385.443 235.245 380.91 236.349C376.683 237.37 372.878 232.579 373.136 228.222C373.394 223.865 376.272 220.178 379.036 216.796C375.9 220.535 372.036 223.597 367.68 225.796C365.19 227.065 361.538 227.722 360.105 225.315C358.555 222.72 361.315 219.796 363.464 217.67C370.404 210.788 373.023 200.631 373.739 190.884C374.455 181.137 373.539 171.296 374.796 161.596C375.496 156.147 377.016 150.545 380.727 146.496C385.154 141.657 391.988 139.802 398.527 139.262C405.066 138.722 411.692 139.262 418.162 138.146C421.192 137.618 424.351 136.62 426.312 134.246C429.248 130.723 428.579 125.556 429.565 121.082C430.489 116.914 432.908 113.229 436.365 110.724C438.032 109.524 440.381 108.634 442.084 109.809C443.422 110.709 443.784 112.486 443.951 114.083C444.459 118.948 444.194 123.863 443.164 128.645C443.023 129.145 442.906 129.655 442.8 130.171C442.929 129.671 443.046 129.15 443.164 128.645C444.863 121.998 448.343 115.941 453.228 111.124C454.896 109.491 457.056 107.918 459.335 108.376C462.775 109.057 463.691 113.531 463.492 117.019C463.025 124.765 460.731 132.29 456.798 138.979L456.939 139.061C461.378 135.24 466.131 131.799 471.148 128.774C474.131 126.966 477.865 125.298 480.942 126.907C483.303 128.152 484.43 131.052 484.195 133.707C483.823 136.356 482.735 138.853 481.048 140.929C475.726 148.237 467.901 153.087 459.309 156.2Z" fill="#171717"/>
<path d="M457.735 276.451C456.303 278.495 454.071 279.34 451.159 279.364C444.736 279.411 438.218 278.6 431.794 278.389C418.394 277.954 404.999 278.087 391.609 278.789C387.346 279.001 382.977 279.271 378.867 278.089C377.289 277.752 375.883 276.866 374.898 275.589C374.798 275.43 374.708 275.265 374.628 275.096C374.15 273.838 373.945 272.493 374.028 271.15C374.004 267.98 374.11 264.468 376.294 262.178C378.432 259.935 381.849 259.63 384.937 259.571C386.018 259.548 387.098 259.548 388.179 259.548C400.944 259.642 413.697 261.427 426.438 260.722C428.176 260.628 429.914 260.487 431.652 260.322C436.902 259.822 442.139 259.065 447.4 258.631C450 258.419 452.755 258.314 455.057 259.531C460.118 262.209 460.457 269.231 458.897 274.058C458.641 274.913 458.249 275.721 457.735 276.451V276.451Z" fill="url(#paint3_linear_47_7921)"/>
<path d="M388.707 850.724L388.918 851.746C386.276 858.393 387.662 865.838 388.418 872.954C388.806 876.162 388.842 879.403 388.524 882.619L387.831 882.549C355.336 895.852 320.221 901.52 285.19 899.118C282.692 896.34 281.337 892.72 281.396 888.984C281.702 882.784 286.657 877.699 292.153 874.821C297.649 871.943 303.853 870.688 309.592 868.321C319.2 864.335 327.284 857.386 332.668 848.486L332.961 847.3C350.882 851.828 370.963 854.282 388.707 850.724Z" fill="url(#paint4_linear_47_7921)"/>
<path d="M218.746 888.42C227.459 888.268 229.597 900.61 224.007 905.73C222.728 906.857 221.218 907.691 219.583 908.173C217.948 908.656 216.228 908.776 214.542 908.525C212.267 908.25 210.169 907.162 208.635 905.46C202.869 898.625 211.159 888.549 218.746 888.42Z" fill="url(#paint5_linear_47_7921)"/>
<path d="M195.541 562.308C199.815 566.359 195.682 570.234 191.619 570.786C189.294 571.085 186.953 571.246 184.608 571.268C179.629 571.362 174.508 571.045 169.694 571.15C154.24 571.467 138.786 571.788 123.331 572.113C123.108 572.113 122.897 572.125 122.673 572.125C120.538 572.283 118.393 572.007 116.367 571.315C114.195 570.422 112.316 568.344 112.421 565.995C112.559 564.913 112.995 563.89 113.679 563.04C114.363 562.19 115.269 561.546 116.297 561.18C118.358 560.477 120.535 560.174 122.709 560.288C140.509 560.053 158.309 559.822 176.109 559.595C180.031 559.548 183.953 559.501 187.864 559.771C190.609 559.971 193.544 560.405 195.541 562.308Z" fill="url(#paint6_linear_47_7921)"/>
<path d="M89.569 888.42C98.282 888.268 100.42 900.61 94.83 905.73C93.551 906.857 92.0413 907.691 90.4064 908.173C88.7716 908.656 87.051 908.776 85.365 908.525C83.0905 908.25 80.9922 907.162 79.458 905.46C73.692 898.625 81.983 888.549 89.569 888.42Z" fill="url(#paint7_linear_47_7921)"/>
<path d="M448.34 165.183L425.722 168.283C427.624 181.671 429.524 195.066 431.422 208.469C428.158 208.13 424.862 208.268 421.639 208.88" stroke="#171717" stroke-width="3.523" stroke-linecap="round" stroke-linejoin="round"/>
<path d="M415.093 178.782C414.551 178.141 413.864 177.639 413.089 177.315C412.314 176.992 411.473 176.858 410.636 176.923C409.799 176.988 408.99 177.252 408.274 177.691C407.559 178.131 406.958 178.734 406.521 179.451C406.709 179.134 406.908 178.817 407.108 178.488" stroke="#171717" stroke-width="3.523" stroke-linecap="round" stroke-linejoin="round"/>
<path d="M443.949 181.835C443.556 181.172 443.01 180.611 442.358 180.201C441.705 179.791 440.964 179.542 440.195 179.475C439.427 179.408 438.654 179.526 437.94 179.818C437.227 180.11 436.593 180.568 436.092 181.154" stroke="#171717" stroke-width="3.523" stroke-linecap="round" stroke-linejoin="round"/>
<path d="M414.777 226.554C413.51 226.643 412.238 226.467 411.042 226.036C409.846 225.606 408.754 224.931 407.834 224.055C406.914 223.178 406.187 222.12 405.699 220.947C405.211 219.773 404.973 218.511 405 217.241" stroke="#171717" stroke-width="3.523" stroke-linecap="round" stroke-linejoin="round"/>
<path d="M431.477 258.249C432.377 253.681 431.524 248.949 431.548 244.286C431.572 239.623 432.804 234.481 436.633 231.803C439.991 229.466 444.559 229.572 448.059 227.458C452.78 224.616 454.377 218.615 455.316 213.19C458.581 194.401 458.957 175.259 459.309 156.199V155.906" stroke="#171717" stroke-width="3.523" stroke-linecap="round" stroke-linejoin="round"/>
<path d="M388.18 259.247C389.037 248.197 389.88 237.369 390.728 226.601C392.114 208.786 393.511 191.112 394.92 172.852C395.085 170.752 395.308 168.483 396.682 166.862C398.091 165.195 400.404 164.608 402.553 164.208C416.387 161.59 430.644 162.048 444.553 159.887C449.579 159.13 454.522 157.896 459.314 156.199C467.914 153.087 475.731 148.237 481.051 140.921C482.738 138.845 483.826 136.348 484.198 133.699C484.433 131.045 483.306 128.145 480.945 126.899C477.868 125.29 474.134 126.958 471.151 128.766C466.134 131.791 461.381 135.232 456.942 139.053" stroke="#171717" stroke-width="3.523" stroke-linecap="round" stroke-linejoin="round"/>
<path d="M443.162 128.638C444.192 123.856 444.457 118.941 443.949 114.076C443.784 112.476 443.42 110.706 442.082 109.802C440.382 108.627 438.03 109.52 436.363 110.717C432.906 113.222 430.487 116.907 429.563 121.075C428.577 125.549 429.246 130.716 426.31 134.239C424.349 136.612 421.19 137.61 418.16 138.139C411.69 139.255 405.067 138.715 398.525 139.255C391.983 139.795 385.15 141.655 380.725 146.489C377.014 150.54 375.499 156.142 374.794 161.589C373.538 171.289 374.442 181.13 373.737 190.877C373.032 200.624 370.402 210.777 363.462 217.663C361.313 219.789 358.553 222.713 360.103 225.308C361.536 227.715 365.188 227.058 367.678 225.789C372.034 223.59 375.898 220.528 379.034 216.789C376.274 220.171 373.397 223.859 373.134 228.215C372.871 232.571 376.681 237.363 380.908 236.342C385.441 235.242 386.608 229.073 390.55 226.583" stroke="#171717" stroke-width="3.523" stroke-linecap="round" stroke-linejoin="round"/>
<path d="M443.161 128.638C443.02 129.138 442.903 129.648 442.797 130.164C442.926 129.659 443.043 129.143 443.161 128.638Z" stroke="#171717" stroke-width="3.523" stroke-linecap="round" stroke-linejoin="round"/>
<path d="M456.547 139.4L456.794 138.977C460.728 132.288 463.022 124.763 463.488 117.017C463.688 113.529 462.771 109.055 459.331 108.374C457.052 107.916 454.892 109.489 453.224 111.122C448.339 115.939 444.86 121.997 443.16 128.643" stroke="#171717" stroke-width="3.523" stroke-linecap="round" stroke-linejoin="round"/>
<path d="M457.734 276.451C458.249 275.719 458.641 274.909 458.897 274.051C460.459 269.224 460.118 262.202 455.057 259.524C452.757 258.303 449.996 258.408 447.4 258.624C442.139 259.058 436.9 259.81 431.652 260.315C429.914 260.479 428.176 260.62 426.438 260.715C413.697 261.42 400.944 259.635 388.179 259.541C387.098 259.541 386.018 259.541 384.937 259.564C381.849 259.623 378.437 259.928 376.294 262.171C374.11 264.461 374.004 267.971 374.028 271.143C373.945 272.486 374.15 273.831 374.628 275.089C374.708 275.258 374.798 275.423 374.898 275.582C375.883 276.859 377.289 277.745 378.867 278.082C382.977 279.268 387.346 278.998 391.609 278.782C404.995 278.089 418.39 277.956 431.794 278.382C438.218 278.593 444.736 279.404 451.159 279.357C454.07 279.34 456.3 278.5 457.734 276.451Z" stroke="#171717" stroke-width="3.523" stroke-linecap="round" stroke-linejoin="round"/>
<path d="M373.969 275.124C348.709 279.082 328.499 297.307 306.879 310.965C254.704 343.94 187.144 351.327 129.079 330.388C128.585 331.704 128.092 333.007 127.587 334.322C121.187 351.303 114.775 368.28 108.352 385.253C105.275 393.438 102.187 401.619 99.0859 409.797" stroke="#171717" stroke-width="3.523" stroke-linecap="round" stroke-linejoin="round"/>
<path d="M98.3994 410.9C110.048 417.6 123.718 420.142 137.152 420.365C150.586 420.588 163.974 418.615 177.291 416.865C210.56 412.473 244.122 409.326 276.569 400.765C295.006 395.904 313.196 389.139 329.79 379.827C342.437 372.842 354.039 364.114 364.256 353.9" stroke="#171717" stroke-width="3.523" stroke-linecap="round" stroke-linejoin="round"/>
<path d="M125.89 333.688C125.322 333.307 124.843 332.807 124.486 332.224C124.13 331.64 123.903 330.986 123.823 330.306C123.663 328.951 123.726 327.578 124.011 326.243C125.667 316.155 129.212 306.397 130.001 296.215C130.228 294.423 130.104 292.604 129.636 290.86C129.442 289.972 129.013 289.152 128.394 288.486C127.775 287.82 126.99 287.332 126.118 287.072C125.247 286.812 124.322 286.789 123.44 287.008C122.557 287.226 121.749 287.676 121.099 288.312C119.758 289.49 118.636 290.898 117.787 292.469C109.555 306.009 104.624 321.346 101.688 336.906" stroke="#171717" stroke-width="3.523" stroke-linecap="round" stroke-linejoin="round"/>
<path d="M99.7269 337.035C92.9159 333.3 80.3739 331.6 77.1999 331.281C73.5604 330.801 69.871 330.845 66.2439 331.41C62.5866 331.982 59.2104 333.716 56.6139 336.354C55.6663 337.285 55.0025 338.466 54.6999 339.76C54.5569 340.405 54.5894 341.076 54.794 341.704C54.9985 342.332 55.3676 342.893 55.8629 343.33C56.8142 343.931 57.9195 344.244 59.0449 344.23C59.2209 344.242 59.3859 344.253 59.5619 344.277C71.5519 345.287 83.5455 346.301 95.5429 347.318C96.2009 347.377 96.8429 347.424 97.5039 347.436C98.2347 347.476 98.9677 347.432 99.6889 347.307C100.377 347.211 101.039 346.98 101.637 346.627C102.236 346.274 102.759 345.806 103.176 345.251C105.516 341.815 103.508 339.114 99.7269 337.035Z" stroke="#171717" stroke-width="3.523" stroke-linecap="round" stroke-linejoin="round"/>
<path d="M59.5289 344.751C57.6671 345.144 55.9094 345.926 54.3714 347.046C52.8334 348.166 51.5498 349.599 50.6049 351.251C49.6351 352.757 49.3014 354.585 49.6769 356.336C49.9468 357.121 50.3776 357.841 50.9417 358.449C51.5059 359.058 52.1908 359.542 52.9529 359.871C54.3654 360.48 55.862 360.873 57.3919 361.034C57.5099 361.057 57.6269 361.081 57.7439 361.092C66.8699 362.396 76.0914 362.911 85.3059 362.631C88.9109 362.548 92.5059 362.337 96.0859 362.02C97.9618 361.959 99.8115 361.561 101.547 360.846C102.442 360.532 103.23 359.97 103.817 359.225C104.405 358.481 104.769 357.584 104.866 356.64C104.964 355.697 104.79 354.745 104.367 353.896C103.943 353.047 103.287 352.336 102.475 351.846C100.94 350.794 99.2419 350.005 97.4489 349.509" stroke="#171717" stroke-width="3.523" stroke-linecap="round" stroke-linejoin="round"/>
<path d="M57.1809 362.424C55.052 362.801 53.0279 363.627 51.2438 364.848C49.4597 366.069 47.9566 367.657 46.8349 369.505C45.8599 371.138 45.1909 373.169 45.9189 374.931C46.7529 376.974 49.0659 377.914 51.1799 378.548C62.8742 382.147 75.2906 382.721 87.2669 380.215C89.1713 379.855 91.0204 379.247 92.7669 378.407C93.334 378.115 93.8761 377.778 94.3879 377.397C95.4523 376.67 96.3131 375.684 96.8886 374.531C97.4641 373.377 97.7351 372.096 97.6759 370.809C97.3939 368.225 95.3389 366.109 92.9669 365.055C90.5366 364.127 87.9449 363.695 85.3449 363.786" stroke="#171717" stroke-width="3.523" stroke-linecap="round" stroke-linejoin="round"/>
<path d="M106.949 384.725C102.279 382.615 97.4187 380.955 92.4336 379.769C92.2696 379.734 92.0936 379.687 91.9336 379.652" stroke="#171717" stroke-width="3.523" stroke-linecap="round" stroke-linejoin="round"/>
<path d="M457.641 276.463C457.677 276.463 457.7 276.451 457.735 276.451C487.106 271.954 516.48 267.465 545.857 262.982C565.41 259.982 585.174 256.993 604.891 258.554C624.608 260.115 644.584 266.669 658.77 280.454C672.956 294.239 680.178 316.071 673.331 334.626C672.218 337.634 670.798 340.519 669.092 343.234C665.177 349.303 660.535 354.871 655.27 359.815C633.498 381.188 607.37 397.159 579.103 408.679C559.878 416.43 539.953 422.317 519.603 426.259C510.503 428.059 501.342 429.512 492.183 430.651" stroke="#171717" stroke-width="3.523" stroke-linecap="round" stroke-linejoin="round"/>
<path d="M491.791 431.792C488.515 419.884 484.8 408.105 480.647 396.456C475.75 382.717 470.25 369.217 464.147 355.956C463.113 353.689 462.057 351.431 460.977 349.18C500.383 341.201 537.984 326.038 571.901 304.447" stroke="#171717" stroke-width="3.523" stroke-linecap="round" stroke-linejoin="round"/>
<path d="M459.825 409.01C455.905 416.913 453.107 425.324 451.51 434C451.064 436.666 450.97 439.942 453.201 441.457C454.963 442.657 457.464 442.079 459.085 440.694C460.604 439.199 461.779 437.39 462.526 435.394C468.514 422.43 474.496 409.469 480.47 396.512" stroke="#171717" stroke-width="3.523" stroke-linecap="round" stroke-linejoin="round"/>
<path d="M459.824 409.01C462.807 403.326 465.778 397.572 469.077 391.71C465.789 397.419 462.599 403.15 459.824 409.01Z" stroke="#171717" stroke-width="3.523" stroke-linecap="round" stroke-linejoin="round"/>
<path d="M451.123 399.287C446.409 408.086 442.202 417.146 438.523 426.425C437.56 428.88 436.75 432.025 438.641 433.871C440.073 435.28 442.516 435.139 444.231 434.094C445.865 432.913 447.213 431.38 448.176 429.608C452.463 422.879 456.15 416.021 459.826 409.008" stroke="#171717" stroke-width="3.523" stroke-linecap="round" stroke-linejoin="round"/>
<path d="M458.827 385.9C456.173 390.21 453.652 394.59 451.264 399.041" stroke="#171717" stroke-width="3.523" stroke-linecap="round" stroke-linejoin="round"/>
<path d="M451.264 399.04C453.964 394.296 456.537 389.669 458.827 385.899L459.672 384.525" stroke="#171717" stroke-width="3.523" stroke-linecap="round" stroke-linejoin="round"/>
<path d="M451.264 399.04L451.123 399.287" stroke="#171717" stroke-width="3.523" stroke-linecap="round" stroke-linejoin="round"/>
<path d="M462.607 356.658C448.507 355.731 424.507 369.282 426.801 375.236C429.937 383.398 444.276 374.485 453.024 374.109C440.013 388.424 419.955 420.859 426.754 425.109C433.378 429.255 442.866 413.765 451.122 399.286" stroke="#171717" stroke-width="3.523" stroke-linecap="round" stroke-linejoin="round"/>
<path d="M329.885 379.992C327.477 430.207 325.493 473.011 319.727 522.944C327.712 523.061 335.701 523.151 343.695 523.214C396.295 523.614 448.877 522.737 501.443 520.584C507.632 520.325 513.825 520.051 520.021 519.762C522.207 489.216 522.179 458.553 519.939 428.011" stroke="#171717" stroke-width="3.523" stroke-linecap="round" stroke-linejoin="round"/>
<path d="M501.337 519.55C501.373 519.891 501.408 520.243 501.443 520.584C512.004 624.99 512.067 730.193 501.631 834.612C501.056 840.39 500.269 846.567 496.431 850.924C492.943 854.881 487.741 856.467 482.397 857.136C480.597 857.359 478.804 857.477 477.042 857.559C460.432 858.257 443.806 856.624 427.65 852.709C424.021 851.84 420.416 850.842 416.85 849.738C416.733 750.881 421.711 652.083 431.764 553.738" stroke="#171717" stroke-width="3.523" stroke-linecap="round" stroke-linejoin="round"/>
<path d="M343.7 523.543C339.425 625.475 336.771 743.554 323.807 844.759C326.778 845.651 329.843 846.508 332.966 847.295C350.887 851.828 370.966 854.282 388.712 850.724C391.146 850.246 393.553 849.639 395.922 848.904C404.084 756.519 411.622 644.347 431.329 553.641C431.376 553.441 431.411 553.241 431.458 553.041" stroke="#171717" stroke-width="3.523" stroke-linecap="round" stroke-linejoin="round"/>
<path d="M427.378 853.824C425.616 860.048 423.855 866.355 423.678 872.813C423.576 875.697 423.872 878.582 424.558 881.386C425.353 884.896 426.976 888.166 429.291 890.922C434.728 897.216 443.418 899.389 451.545 901.232C469.735 905.354 488.618 909.5 506.868 905.659C514.348 904.098 522.909 899.236 522.404 891.614C522.34 890.643 522.126 889.689 521.77 888.784C520.606 886.04 518.631 883.716 516.11 882.126C512.833 879.942 509.052 878.685 505.458 877.064C496.285 872.924 488.375 866.424 482.535 858.228" stroke="#171717" stroke-width="3.523" stroke-linecap="round" stroke-linejoin="round"/>
<path d="M388.918 851.746C386.276 858.393 387.662 865.838 388.418 872.954C388.806 876.162 388.842 879.403 388.524 882.619C388.237 886.557 386.67 890.294 384.062 893.259C380.586 896.946 375.442 898.459 370.562 899.823C347.885 906.129 324.082 912.482 301.123 907.323C296.356 906.254 291.588 904.634 287.771 901.592C286.838 900.849 285.977 900.019 285.2 899.114C282.702 896.336 281.346 892.716 281.406 888.98C281.712 882.78 286.667 877.695 292.163 874.817C297.659 871.939 303.863 870.684 309.602 868.317C319.21 864.331 327.294 857.382 332.678 848.482" stroke="#171717" stroke-width="3.523" stroke-linecap="round" stroke-linejoin="round"/>
<path d="M425.887 881.069C446.646 888.084 468.074 892.937 489.83 895.548C500.505 896.828 512.788 897.028 520.269 889.301" stroke="#171717" stroke-width="3.523" stroke-linecap="round" stroke-linejoin="round"/>
<path d="M284.885 899.1C284.991 899.112 285.085 899.112 285.191 899.123C320.22 901.524 355.333 895.856 387.827 882.554" stroke="#171717" stroke-width="3.523" stroke-linecap="round" stroke-linejoin="round"/>
<path d="M711.272 222.232L821.166 247.915C821.988 245.425 852.666 123.576 852.666 123.576L626.368 69.7L531.035 134.359L604.807 197.35L697.838 219.087L711.272 222.232Z" stroke="#171717" stroke-width="3.523" stroke-linecap="round" stroke-linejoin="round"/>
<path d="M579.113 408.728L577.457 483.334L689.934 484.625L702.782 484.778L866.754 486.657L925.612 417.853L846.027 340.758L706.669 342.719L694.28 342.883L669.09 343.236L668.644 343.247" stroke="#171717" stroke-width="3.523" stroke-linecap="round" stroke-linejoin="round"/>
<path d="M697.146 685.413L818.678 631.713L817.022 503.229C817.022 503.229 754.183 530.039 701.122 553.029C696.295 555.12 691.551 557.175 686.936 559.183C654.924 573.111 629.452 584.383 628.842 585.3C627.186 587.778 561.705 672.33 561.705 672.33L640.456 710.461L682.567 691.847L697.146 685.413Z" stroke="#171717" stroke-width="3.523" stroke-linecap="round" stroke-linejoin="round"/>
<path d="M694.27 342.132C695.162 300.549 696.337 260.621 697.746 219.473" stroke="#171717" stroke-width="3.523" stroke-linecap="round" stroke-linejoin="round"/>
<path d="M686.93 559.548C686.93 559.431 686.942 559.301 686.942 559.184C687.742 534.546 688.68 509.921 689.925 485.307" stroke="#171717" stroke-width="3.523" stroke-linecap="round" stroke-linejoin="round"/>
<path d="M677.348 904.438C679.896 833.696 679.896 763.238 683.078 692.988" stroke="#171717" stroke-width="3.523" stroke-linecap="round" stroke-linejoin="round"/>
<path d="M677.348 904.438C677.782 904.356 678.228 904.274 678.663 904.203C678.234 904.328 677.793 904.406 677.348 904.438V904.438Z" stroke="#171717" stroke-width="3.523" stroke-linecap="round" stroke-linejoin="round"/>
<path d="M697.91 687.128C697.51 759.713 693.988 831.348 690.465 904.156C685.765 906.505 682.245 902.982 677.348 904.438" stroke="#171717" stroke-width="3.523" stroke-linecap="round" stroke-linejoin="round"/>
<path d="M702.784 484.637V484.778C702.561 507.525 701.868 530.284 701.128 553.03C701.118 553.108 701.114 553.186 701.116 553.265" stroke="#171717" stroke-width="3.523" stroke-linecap="round" stroke-linejoin="round"/>
<path d="M711.085 223.031C708.079 262.97 708.079 301.723 706.658 341.568" stroke="#171717" stroke-width="3.523" stroke-linecap="round" stroke-linejoin="round"/>
<path d="M607.709 905.542L770.189 906.575" stroke="#171717" stroke-width="3.523" stroke-linecap="round" stroke-linejoin="round"/>
<path d="M190.961 600.767H236.49C240.081 600.768 243.524 602.195 246.063 604.734C248.602 607.273 250.029 610.716 250.03 614.307V874.046C250.027 877.636 248.6 881.078 246.061 883.617C243.522 886.156 240.08 887.583 236.49 887.586H73.457C69.8669 887.583 66.4246 886.156 63.886 883.617C61.3474 881.078 59.9199 877.636 59.917 874.046V614.307C59.9181 610.716 61.3449 607.273 63.8839 604.734C66.423 602.195 69.8663 600.768 73.457 600.767H190.957H190.961Z" stroke="#171717" stroke-width="3.523" stroke-linecap="round" stroke-linejoin="round"/>
<path d="M190.961 599.957C191.607 592.77 192.257 585.583 192.91 578.396" stroke="#171717" stroke-width="3.523" stroke-linecap="round" stroke-linejoin="round"/>
<path d="M173.546 599.969C174.346 593.052 175.146 586.139 175.946 579.23" stroke="#171717" stroke-width="3.523" stroke-linecap="round" stroke-linejoin="round"/>
<path d="M192.816 577.715C190.015 577.408 187.19 577.388 184.385 577.656C181.629 577.902 178.906 578.43 176.258 579.23" stroke="#171717" stroke-width="3.523" stroke-linecap="round" stroke-linejoin="round"/>
<path d="M113.208 600.438C112.623 593.49 112.971 586.494 114.242 579.638" stroke="#171717" stroke-width="3.523" stroke-linecap="round" stroke-linejoin="round"/>
<path d="M127.946 599.933C128.298 593.157 128.647 586.39 128.991 579.633" stroke="#171717" stroke-width="3.523" stroke-linecap="round" stroke-linejoin="round"/>
<path d="M114.77 579.488C117.201 578.73 119.74 578.377 122.286 578.443C124.27 578.485 126.242 578.769 128.158 579.289" stroke="#171717" stroke-width="3.523" stroke-linecap="round" stroke-linejoin="round"/>
<path d="M184.608 571.268C179.629 571.362 174.508 571.045 169.694 571.15C154.24 571.467 138.786 571.788 123.331 572.113C123.108 572.113 122.897 572.125 122.673 572.125C120.538 572.283 118.393 572.007 116.367 571.315C114.195 570.422 112.316 568.344 112.421 565.995C112.559 564.913 112.995 563.89 113.679 563.04C114.363 562.19 115.269 561.546 116.297 561.18C118.358 560.477 120.535 560.174 122.709 560.288C140.509 560.053 158.309 559.822 176.109 559.595C180.031 559.548 183.953 559.501 187.864 559.771C190.612 559.971 193.547 560.405 195.544 562.308C199.818 566.359 195.685 570.234 191.622 570.786C189.296 571.086 186.954 571.246 184.608 571.268V571.268Z" stroke="#171717" stroke-width="3.523" stroke-linecap="round" stroke-linejoin="round"/>
<path d="M122.3 577.551L122.687 572.583" stroke="#171717" stroke-width="3.523" stroke-linecap="round" stroke-linejoin="round"/>
<path d="M184.22 575.906L184.608 571.35" stroke="#171717" stroke-width="3.523" stroke-linecap="round" stroke-linejoin="round"/>
<path d="M208.635 905.46C210.169 907.162 212.267 908.25 214.542 908.525C216.228 908.776 217.948 908.656 219.583 908.173C221.218 907.691 222.728 906.857 224.007 905.73C229.597 900.61 227.459 888.268 218.746 888.42C211.159 888.549 202.869 898.625 208.635 905.46Z" stroke="#171717" stroke-width="3.523" stroke-linecap="round" stroke-linejoin="round"/>
<path d="M79.458 905.46C80.9922 907.162 83.0905 908.25 85.365 908.525C87.051 908.776 88.7716 908.656 90.4064 908.173C92.0413 907.691 93.551 906.857 94.83 905.73C100.42 900.61 98.282 888.268 89.569 888.42C81.983 888.549 73.692 898.625 79.458 905.46Z" stroke="#171717" stroke-width="3.523" stroke-linecap="round" stroke-linejoin="round"/>
<path d="M303.235 249.022L280.555 223.172" stroke="#171717" stroke-width="3.523" stroke-linecap="round" stroke-linejoin="round"/>
<path d="M277.826 250.043L303.126 223.094" stroke="#171717" stroke-width="3.523" stroke-linecap="round" stroke-linejoin="round"/>
<path d="M285.668 148.443L273.234 134.766" stroke="url(#paint8_linear_47_7921)" stroke-width="3.523" stroke-linecap="round" stroke-linejoin="round"/>
<path d="M271.992 148.443L281.939 134.766" stroke="url(#paint9_linear_47_7921)" stroke-width="3.523" stroke-linecap="round" stroke-linejoin="round"/>
<path d="M391.312 98.75L376.406 82.572" stroke="#171717" stroke-width="3.523" stroke-linecap="round" stroke-linejoin="round"/>
<path d="M374.148 97.659L389.014 82.684" stroke="#171717" stroke-width="3.523" stroke-linecap="round" stroke-linejoin="round"/>
<path d="M533.107 221.8L523.16 213.1" stroke="#171717" stroke-width="3.523" stroke-linecap="round" stroke-linejoin="round"/>
<path d="M520.674 225.535L531.865 210.614" stroke="#171717" stroke-width="3.523" stroke-linecap="round" stroke-linejoin="round"/>
<path d="M74.4727 561.186C72.2049 555.241 68.2326 550.097 63.0537 546.4" stroke="#171717" stroke-width="3.523" stroke-linecap="round" stroke-linejoin="round"/>
<path d="M60.8936 560.272L74.5746 545.354" stroke="#171717" stroke-width="3.523" stroke-linecap="round" stroke-linejoin="round"/>
<path d="M636.312 111.141L799.199 148.443" stroke="#171717" stroke-width="3.523" stroke-linecap="round" stroke-linejoin="round"/>
<path d="M645.016 410.803H831.528" stroke="#171717" stroke-width="3.523" stroke-linecap="round" stroke-linejoin="round"/>
<path d="M648.746 440.231H744.903" stroke="#171717" stroke-width="3.523" stroke-linecap="round" stroke-linejoin="round"/>
<path d="M691.021 162.121L785.521 182.015" stroke="#171717" stroke-width="3.523" stroke-linecap="round" stroke-linejoin="round"/>
<path d="M756.922 569.96L657.449 613.479" stroke="url(#paint10_linear_47_7921)" stroke-width="3.523" stroke-linecap="round" stroke-linejoin="round"/>
<path d="M778.061 598.558L636.312 664.459" stroke="url(#paint11_linear_47_7921)" stroke-width="3.523" stroke-linecap="round" stroke-linejoin="round"/>
<path d="M507.424 74.931L517.867 79.013C517.955 79.0473 518.031 79.1079 518.083 79.1866C518.136 79.2653 518.164 79.3583 518.162 79.4531C518.16 79.5478 518.129 79.6398 518.074 79.7165C518.018 79.7932 517.94 79.8509 517.851 79.882L507.262 83.57C507.175 83.6005 507.1 83.6557 507.045 83.7288C506.99 83.8019 506.957 83.8896 506.952 83.981L506.301 95.174C506.295 95.2685 506.261 95.359 506.202 95.4334C506.144 95.5078 506.064 95.5624 505.973 95.59C505.883 95.6175 505.786 95.6167 505.696 95.5876C505.606 95.5584 505.527 95.5024 505.47 95.427L498.69 86.497C498.634 86.424 498.559 86.369 498.472 86.3391C498.386 86.3092 498.292 86.3057 498.204 86.329L487.356 89.165C487.264 89.1899 487.166 89.1859 487.077 89.1535C486.987 89.1211 486.91 89.0619 486.855 88.9839C486.801 88.906 486.771 88.8131 486.771 88.7179C486.772 88.6228 486.801 88.5299 486.856 88.452L493.256 79.245C493.308 79.1696 493.337 79.0805 493.338 78.9889C493.34 78.8972 493.314 78.8071 493.265 78.73L487.216 69.29C487.165 69.2102 487.139 69.1168 487.143 69.0222C487.147 68.9277 487.18 68.8365 487.237 68.761C487.294 68.6855 487.372 68.6292 487.462 68.5997C487.552 68.5702 487.649 68.5689 487.74 68.596L498.474 71.836C498.561 71.8624 498.655 71.8623 498.742 71.8356C498.83 71.8089 498.908 71.7568 498.966 71.686L506.075 63.016C506.135 62.9429 506.216 62.89 506.307 62.8644C506.398 62.8387 506.495 62.8415 506.584 62.8725C506.674 62.9034 506.752 62.9609 506.807 63.0373C506.863 63.1137 506.894 63.2054 506.897 63.3L507.133 74.51C507.134 74.601 507.163 74.6896 507.214 74.7645C507.266 74.8394 507.339 74.8973 507.424 74.931Z" fill="url(#paint12_linear_47_7921)"/>
<path d="M129.633 502.873L140.076 506.954C140.165 506.988 140.24 507.049 140.293 507.128C140.346 507.206 140.373 507.299 140.371 507.394C140.37 507.489 140.339 507.581 140.283 507.657C140.228 507.734 140.15 507.792 140.06 507.823L129.471 511.512C129.385 511.542 129.309 511.597 129.254 511.67C129.199 511.743 129.167 511.831 129.161 511.922L128.506 523.115C128.501 523.209 128.466 523.3 128.408 523.374C128.349 523.449 128.269 523.503 128.179 523.531C128.088 523.559 127.992 523.558 127.901 523.529C127.811 523.499 127.732 523.443 127.675 523.368L120.895 514.438C120.84 514.365 120.764 514.31 120.678 514.28C120.591 514.25 120.498 514.247 120.409 514.27L109.561 517.106C109.469 517.13 109.372 517.126 109.283 517.093C109.194 517.061 109.117 517.002 109.063 516.924C109.008 516.846 108.979 516.754 108.979 516.659C108.978 516.564 109.007 516.471 109.061 516.393L115.461 507.186C115.513 507.111 115.542 507.022 115.544 506.93C115.545 506.838 115.52 506.748 115.47 506.671L109.421 497.231C109.37 497.151 109.345 497.058 109.349 496.963C109.353 496.869 109.385 496.778 109.442 496.702C109.499 496.627 109.578 496.57 109.668 496.541C109.758 496.511 109.855 496.51 109.945 496.537L120.679 499.777C120.767 499.803 120.86 499.803 120.948 499.777C121.036 499.75 121.113 499.698 121.171 499.627L128.28 490.957C128.34 490.884 128.422 490.831 128.513 490.805C128.604 490.78 128.7 490.783 128.79 490.813C128.879 490.844 128.957 490.902 129.013 490.978C129.069 491.055 129.1 491.146 129.102 491.241L129.337 502.451C129.34 502.543 129.369 502.632 129.422 502.707C129.474 502.782 129.548 502.84 129.633 502.873V502.873Z" fill="url(#paint13_linear_47_7921)"/>
<path d="M470.524 485.822L448.972 467.033L442.34 494.112L470.524 485.822Z" stroke="#171717" stroke-width="3.523" stroke-linecap="round" stroke-linejoin="round"/>
<path d="M362.208 470.901L375.471 452.665L354.471 449.902L362.208 470.901Z" stroke="#171717" stroke-width="3.523" stroke-linecap="round" stroke-linejoin="round"/>
<path d="M379.893 405.691L392.601 420.612C392.601 420.612 405.311 399.06 403.653 399.06C401.995 399.06 379.893 405.691 379.893 405.691Z" stroke="#171717" stroke-width="3.523" stroke-linecap="round" stroke-linejoin="round"/>
<path d="M395.365 313.402L412.496 323.902L413.602 298.482L395.365 313.402Z" stroke="#171717" stroke-width="3.523" stroke-linecap="round" stroke-linejoin="round"/>
<path d="M530.207 312.85L505.891 293.508L498.707 322.797L530.207 312.85Z" stroke="#171717" stroke-width="3.523" stroke-linecap="round" stroke-linejoin="round"/>
<path d="M596.522 312.85L598.18 335.508L571.654 322.797L596.522 312.85Z" stroke="#171717" stroke-width="3.523" stroke-linecap="round" stroke-linejoin="round"/>
<path d="M567.786 387.455L539.602 369.771L530.76 394.086L567.786 387.455Z" stroke="#171717" stroke-width="3.523" stroke-linecap="round" stroke-linejoin="round"/>
<path d="M314.129 343.797L303.629 368.665L281.523 349.323L314.129 343.797Z" stroke="#171717" stroke-width="3.523" stroke-linecap="round" stroke-linejoin="round"/>
<path d="M208.578 376.955L196.972 392.981L183.709 377.507L208.578 376.955Z" stroke="#171717" stroke-width="3.523" stroke-linecap="round" stroke-linejoin="round"/>
<path d="M145.025 346.008L156.078 358.165L135.078 365.349L145.025 346.008Z" stroke="#171717" stroke-width="3.523" stroke-linecap="round" stroke-linejoin="round"/>
<path d="M408.629 512.901L403.103 483.059L377.129 502.401L408.629 512.901Z" stroke="#171717" stroke-width="3.523" stroke-linecap="round" stroke-linejoin="round"/>
<path d="M610.339 270.85L571.102 285.771L579.944 268.087L610.339 270.85Z" stroke="#171717" stroke-width="3.523" stroke-linecap="round" stroke-linejoin="round"/>
<path d="M471.075 317.823L455.049 336.06L446.207 318.376L471.075 317.823Z" stroke="#171717" stroke-width="3.523" stroke-linecap="round" stroke-linejoin="round"/>
<path d="M354.471 301.797L359.998 318.929L336.787 316.166L354.471 301.797Z" stroke="#171717" stroke-width="3.523" stroke-linecap="round" stroke-linejoin="round"/>
<g opacity="0.1">
<path d="M103.549 415.084C141.155 422.009 179.657 416.813 217.178 411.945C253.426 407.245 289.724 400.238 322.724 383.89C339.913 375.519 355.52 364.231 368.853 350.528C378.241 340.721 363.347 325.783 353.937 335.612C306.546 385.119 231.887 389.512 168.094 398.542C148.171 401.363 127.857 402.426 107.885 399.354C103.537 398.686 99.1147 400.454 97.8517 405.054C96.7627 409.019 99.1937 414.285 103.552 415.087L103.549 415.084Z" fill="#171717"/>
</g>
<g opacity="0.1">
<path d="M330.434 379.505C324.868 389.284 325.681 401.819 324.967 412.766C324.255 423.675 323.839 434.607 323.311 445.527L320.142 511.048C319.832 517.448 325.814 522.907 332.001 522.907C338.676 522.907 343.556 517.471 343.861 511.048L346.961 445.527C347.461 434.94 348.077 424.352 348.411 413.759C348.774 402.248 350.525 390.279 345.73 379.505C342.961 373.283 333.461 374.18 330.43 379.505H330.434Z" fill="#171717"/>
</g>
<g opacity="0.1">
<path d="M398.324 165.254C392.786 180.047 391.556 196.005 389.999 211.609C389.225 219.365 388.498 227.125 387.818 234.889C387.157 242.304 384.318 251.417 387.548 258.331C389.598 262.721 395.704 261.78 397.991 258.331C401.84 252.525 400.343 242.651 400.847 235.86C401.424 228.093 402.135 220.333 402.847 212.578C404.269 197.139 406.431 181.585 404.583 166.101C404.159 162.544 399.632 161.755 398.322 165.254H398.324Z" fill="#171717"/>
</g>
<defs>
<linearGradient id="paint0_linear_47_7921" x1="387.172" y1="258.123" x2="387.172" y2="523.301" gradientUnits="userSpaceOnUse">
<stop stop-color="#42E670"/>
<stop offset="1" stop-color="#07AA50"/>
</linearGradient>
<linearGradient id="paint1_linear_47_7921" x1="691.849" y1="69.7" x2="691.849" y2="247.917" gradientUnits="userSpaceOnUse">
<stop stop-color="#42E670"/>
<stop offset="1" stop-color="#07AA50"/>
</linearGradient>
<linearGradient id="paint2_linear_47_7921" x1="472.716" y1="852.709" x2="472.716" y2="896.224" gradientUnits="userSpaceOnUse">
<stop stop-color="#42E670"/>
<stop offset="1" stop-color="#07AA50"/>
</linearGradient>
<linearGradient id="paint3_linear_47_7921" x1="416.864" y1="258.5" x2="416.864" y2="279.366" gradientUnits="userSpaceOnUse">
<stop stop-color="#42E670"/>
<stop offset="1" stop-color="#07AA50"/>
</linearGradient>
<linearGradient id="paint4_linear_47_7921" x1="335.156" y1="847.3" x2="335.156" y2="899.656" gradientUnits="userSpaceOnUse">
<stop stop-color="#42E670"/>
<stop offset="1" stop-color="#07AA50"/>
</linearGradient>
<linearGradient id="paint5_linear_47_7921" x1="216.902" y1="888.419" x2="216.902" y2="908.653" gradientUnits="userSpaceOnUse">
<stop stop-color="#42E670"/>
<stop offset="1" stop-color="#07AA50"/>
</linearGradient>
<linearGradient id="paint6_linear_47_7921" x1="154.882" y1="559.559" x2="154.882" y2="572.168" gradientUnits="userSpaceOnUse">
<stop stop-color="#42E670"/>
<stop offset="1" stop-color="#07AA50"/>
</linearGradient>
<linearGradient id="paint7_linear_47_7921" x1="87.7249" y1="888.419" x2="87.7249" y2="908.653" gradientUnits="userSpaceOnUse">
<stop stop-color="#42E670"/>
<stop offset="1" stop-color="#07AA50"/>
</linearGradient>
<linearGradient id="paint8_linear_47_7921" x1="279.451" y1="134.766" x2="279.451" y2="148.443" gradientUnits="userSpaceOnUse">
<stop stop-color="#42E670"/>
<stop offset="1" stop-color="#07AA50"/>
</linearGradient>
<linearGradient id="paint9_linear_47_7921" x1="276.966" y1="134.766" x2="276.966" y2="148.443" gradientUnits="userSpaceOnUse">
<stop stop-color="#42E670"/>
<stop offset="1" stop-color="#07AA50"/>
</linearGradient>
<linearGradient id="paint10_linear_47_7921" x1="707.186" y1="569.96" x2="707.186" y2="613.479" gradientUnits="userSpaceOnUse">
<stop stop-color="#42E670"/>
<stop offset="1" stop-color="#07AA50"/>
</linearGradient>
<linearGradient id="paint11_linear_47_7921" x1="707.187" y1="598.558" x2="707.187" y2="664.459" gradientUnits="userSpaceOnUse">
<stop stop-color="#42E670"/>
<stop offset="1" stop-color="#07AA50"/>
</linearGradient>
<linearGradient id="paint12_linear_47_7921" x1="502.467" y1="62.847" x2="502.467" y2="95.6101" gradientUnits="userSpaceOnUse">
<stop stop-color="#42E670"/>
<stop offset="1" stop-color="#07AA50"/>
</linearGradient>
<linearGradient id="paint13_linear_47_7921" x1="124.675" y1="490.788" x2="124.675" y2="523.551" gradientUnits="userSpaceOnUse">
<stop stop-color="#42E670"/>
<stop offset="1" stop-color="#07AA50"/>
</linearGradient>
</defs>
</svg>
